<svg xmlns="http://www.w3.org/2000/svg" width="1863" height="1053" viewBox="0 0 1863 1053">
  <g id="Group_16" data-name="Group 16" transform="translate(-22 -20)">
    <path id="Union_398" data-name="Union 398" d="M386,155.394C378.155,177.48,359.618,193,338,193c-28.719,0-52-27.39-52-61.176,0-18.9,7.283-35.793,18.727-47.015L386-7l81.273,91.808C478.717,96.03,486,112.926,486,131.823,486,165.61,462.719,193,434,193,412.382,193,393.845,177.48,386,155.394Z" transform="translate(2171 1066) rotate(180)" opacity="0.1"/>
    <path id="Union_406" data-name="Union 406" d="M361,114.8c-5.884,16.564-19.786,28.2-36,28.2-21.539,0-39-20.542-39-45.882,0-14.173,5.462-26.845,14.045-35.261L361-7l60.955,68.856C430.538,70.273,436,82.944,436,97.118,436,122.458,418.539,143,397,143,380.787,143,366.884,131.36,361,114.8Z" transform="translate(458 177) rotate(180)" opacity="0.1"/>
    <path id="Union_399" data-name="Union 399" d="M357.2,193l14.215-42.156a52,52,0,1,1-35.5-91.8,52,52,0,1,1,100.164,0A52,52,0,1,1,401.139,151.3L415.2,193Z" transform="translate(-259 858)" opacity="0.1"/>
    <path id="Union_407" data-name="Union 407" d="M339.4,143l10.662-31.617a39,39,0,1,1-26.623-68.852,39,39,0,1,1,75.123,0,39,39,0,1,1-26.207,69.2L382.9,143Z" transform="translate(469 848)" opacity="0.1"/>
    <path id="Union_403" data-name="Union 403" d="M321.6,93l7.108-21.078a26,26,0,1,1-17.749-45.9,26,26,0,1,1,50.082,0A26,26,0,1,1,343.57,72.151L350.6,93Z" transform="translate(-150 617)" opacity="0.1"/>
    <path id="Union_401" data-name="Union 401" d="M357.2,193l14.216-42.156a52,52,0,1,1-66.688-79.807L386-7l81.272,78.037A52,52,0,0,1,401.139,151.3L415.2,193Z" transform="translate(1214 272)" opacity="0.1"/>
    <path id="Union_405" data-name="Union 405" d="M321.6,93l7.108-21.078a26,26,0,1,1-33.344-39.9L336-7l40.636,39.019A26,26,0,0,1,343.57,72.151L350.6,93Z" transform="translate(494 250)" opacity="0.1"/>
    <rect id="Rectangle_354" data-name="Rectangle 354" width="146.941" height="146.943" transform="translate(642.097 332.193) rotate(45)" opacity="0.1"/>
    <path id="Union_402" data-name="Union 402" d="M336,74.2C332.078,85.24,322.809,93,312,93c-14.359,0-26-13.695-26-30.588A32.893,32.893,0,0,1,295.364,38.9L336-7l40.636,45.9A32.892,32.892,0,0,1,386,62.412C386,79.3,374.36,93,360,93,349.191,93,339.923,85.24,336,74.2Z" transform="translate(1489 866) rotate(180)" opacity="0.1"/>
    <rect id="Rectangle_357" data-name="Rectangle 357" width="72.149" height="72.15" transform="translate(427.176 548.168) rotate(45)" opacity="0.1"/>
    <path id="Union_409" data-name="Union 409" d="M339.4,143l10.662-31.617a39,39,0,1,1-50.016-59.855L361-7l60.954,58.528a39,39,0,0,1-49.6,60.2L382.9,143Z" transform="translate(1064 817)" opacity="0.1"/>
    <rect id="Rectangle_360" data-name="Rectangle 360" width="109.228" height="109.23" transform="translate(1003.237 70) rotate(45)" opacity="0.1"/>
    <path id="Union_410" data-name="Union 410" d="M336,74.2C332.078,85.24,322.809,93,312,93c-14.359,0-26-13.695-26-30.588A32.893,32.893,0,0,1,295.364,38.9L336-7l40.636,45.9A32.892,32.892,0,0,1,386,62.412C386,79.3,374.36,93,360,93,349.191,93,339.923,85.24,336,74.2Z" transform="translate(2151 127) rotate(180)" opacity="0.1"/>
    <path id="Union_411" data-name="Union 411" d="M336,74.2C332.078,85.24,322.809,93,312,93c-14.359,0-26-13.695-26-30.588A32.893,32.893,0,0,1,295.364,38.9L336-7l40.636,45.9A32.892,32.892,0,0,1,386,62.412C386,79.3,374.36,93,360,93,349.191,93,339.923,85.24,336,74.2Z" transform="translate(1250 687) rotate(180)" opacity="0.1"/>
    <path id="Union_412" data-name="Union 412" d="M361,114.8c-5.884,16.564-19.786,28.2-36,28.2-21.539,0-39-20.542-39-45.882,0-14.173,5.462-26.845,14.045-35.261L361-7l60.955,68.856C430.538,70.273,436,82.944,436,97.118,436,122.458,418.539,143,397,143,380.787,143,366.884,131.36,361,114.8Z" transform="translate(804 286) rotate(180)" opacity="0.1"/>
    <rect id="Rectangle_364" data-name="Rectangle 364" width="109.228" height="109.23" transform="translate(177.237 343) rotate(45)" opacity="0.1"/>
    <rect id="Rectangle_365" data-name="Rectangle 365" width="72.149" height="72.15" transform="translate(1314.017 548.168) rotate(45)" opacity="0.1"/>
    <path id="Union_414" data-name="Union 414" d="M339.4,143l10.662-31.617a39,39,0,1,1-50.016-59.855L361-7l60.954,58.528a39,39,0,0,1-49.6,60.2L382.9,143Z" transform="translate(732 397)" opacity="0.1"/>
    <rect id="Rectangle_367" data-name="Rectangle 367" width="72.149" height="72.15" transform="translate(1715.051 581.903) rotate(45)" opacity="0.1"/>
    <path id="Union_415" data-name="Union 415" d="M336,74.2C332.078,85.24,322.809,93,312,93c-14.359,0-26-13.695-26-30.588A32.893,32.893,0,0,1,295.364,38.9L336-7l40.636,45.9A32.892,32.892,0,0,1,386,62.412C386,79.3,374.36,93,360,93,349.191,93,339.923,85.24,336,74.2Z" transform="translate(938 816) rotate(180)" opacity="0.1"/>
    <path id="Union_416" data-name="Union 416" d="M339.4,143l10.662-31.617a39,39,0,1,1-26.623-68.852,39,39,0,1,1,75.123,0,39,39,0,1,1-26.207,69.2L382.9,143Z" transform="translate(977 116)" opacity="0.1"/>
    <path id="Union_418" data-name="Union 418" d="M321.6,93l7.108-21.078a26,26,0,1,1-33.344-39.9L336-7l40.636,39.019A26,26,0,0,1,343.57,72.151L350.6,93Z" transform="translate(66 908)" opacity="0.1"/>
    <path id="Union_419" data-name="Union 419" d="M321.6,93l7.108-21.078a26,26,0,1,1-17.749-45.9,26,26,0,1,1,50.082,0A26,26,0,1,1,343.57,72.151L350.6,93Z" transform="translate(344 27)" opacity="0.1"/>
  </g>
</svg>
