<svg xmlns="http://www.w3.org/2000/svg" width="404" height="550" viewBox="0 0 404 550">
  <g id="a_spade" transform="translate(-35 -26)">
    <rect id="Rectangle_10" data-name="Rectangle 10" width="404" height="550" rx="8" transform="translate(35 26)" fill="#fff"/>
    <rect id="Rectangle_11" data-name="Rectangle 11" width="296" height="454" transform="translate(89 74)" fill="#fff"/>
    <text id="A" transform="translate(47 74)" font-size="48" font-family="Georama" font-weight="800"><tspan x="0" y="0">A</tspan></text>
    <text id="A-2" data-name="A" transform="translate(427 528) rotate(180)" font-size="48" font-family="Georama" font-weight="800"><tspan x="0" y="0">A</tspan></text>
    <path id="Union_10" data-name="Union 10" d="M297.392,25l2.274-6.745A8.32,8.32,0,1,1,289,5.486L302-7,315,5.486a8.32,8.32,0,0,1-10.581,12.843L306.672,25Z" transform="translate(-238 95)"/>
    <path id="Union_117" data-name="Union 117" d="M297.392,25l2.274-6.745A8.32,8.32,0,1,1,289,5.486L302-7,315,5.486a8.32,8.32,0,0,1-10.581,12.843L306.672,25Z" transform="translate(713 507) rotate(180)"/>
    <path id="Union_10-2" data-name="Union 10" d="M322.846,96.5,330.2,74.684a26.911,26.911,0,1,1-34.511-41.3L337.75-7l42.059,40.384a26.911,26.911,0,0,1-34.224,41.538L352.861,96.5Z" transform="translate(-100.75 256.25)"/>
  </g>
</svg>
