<svg xmlns="http://www.w3.org/2000/svg" width="404" height="550" viewBox="0 0 404 550">
  <g id="eight_heart" transform="translate(-909 -616)">
    <rect id="Rectangle_25" data-name="Rectangle 25" width="404" height="550" rx="8" transform="translate(909 616)" fill="#fff"/>
    <rect id="Rectangle_26" data-name="Rectangle 26" width="296" height="454" transform="translate(963 664)" fill="#fff"/>
    <text id="_8" data-name="8" transform="translate(921 664)" fill="#bb371a" font-size="48" font-family="Georama" font-weight="800"><tspan x="0" y="0">8</tspan></text>
    <text id="_8-2" data-name="8" transform="translate(1301 1118) rotate(180)" fill="#bb371a" font-size="48" font-family="Georama" font-weight="800"><tspan x="0" y="0">8</tspan></text>
    <path id="Union_335" data-name="Union 335" d="M302,18.983C300.745,22.517,297.779,25,294.32,25c-4.6,0-8.32-4.382-8.32-9.788a10.526,10.526,0,0,1,3-7.522L302-7,315,7.689a10.526,10.526,0,0,1,3,7.522c0,5.406-3.725,9.788-8.32,9.788C306.221,25,303.255,22.517,302,18.983Z" transform="translate(983 1079)" fill="#bb371a"/>
    <path id="Union_331" data-name="Union 331" d="M302,18.983C300.745,22.517,297.779,25,294.32,25c-4.6,0-8.32-4.382-8.32-9.788a10.526,10.526,0,0,1,3-7.522L302-7,315,7.689a10.526,10.526,0,0,1,3,7.522c0,5.406-3.725,9.788-8.32,9.788C306.221,25,303.255,22.517,302,18.983Z" transform="translate(1239 703) rotate(180)" fill="#bb371a"/>
    <path id="Union_353" data-name="Union 353" d="M337.75,77.039C333.69,88.468,324.1,96.5,312.91,96.5,298.048,96.5,286,82.326,286,64.841a34.044,34.044,0,0,1,9.691-24.33L337.75-7l42.059,47.511a34.044,34.044,0,0,1,9.691,24.33c0,17.485-12.048,31.659-26.91,31.659C351.4,96.5,341.81,88.468,337.75,77.039Z" transform="translate(1352.5 760.5) rotate(180)" fill="#bb371a"/>
    <path id="Union_354" data-name="Union 354" d="M337.75,77.039C333.69,88.468,324.1,96.5,312.91,96.5,298.048,96.5,286,82.326,286,64.841a34.044,34.044,0,0,1,9.691-24.33L337.75-7l42.059,47.511a34.044,34.044,0,0,1,9.691,24.33c0,17.485-12.048,31.659-26.91,31.659C351.4,96.5,341.81,88.468,337.75,77.039Z" transform="translate(1448.75 848.25) rotate(180)" fill="#bb371a"/>
    <path id="Union_351" data-name="Union 351" d="M337.75,77.039C333.69,88.468,324.1,96.5,312.91,96.5,298.048,96.5,286,82.326,286,64.841a34.044,34.044,0,0,1,9.691-24.33L337.75-7l42.059,47.511a34.044,34.044,0,0,1,9.691,24.33c0,17.485-12.048,31.659-26.91,31.659C351.4,96.5,341.81,88.468,337.75,77.039Z" transform="translate(1544 760.5) rotate(180)" fill="#bb371a"/>
    <path id="Union_355" data-name="Union 355" d="M337.75,77.039C333.69,88.468,324.1,96.5,312.91,96.5,298.048,96.5,286,82.326,286,64.841a34.044,34.044,0,0,1,9.691-24.33L337.75-7l42.059,47.511a34.044,34.044,0,0,1,9.691,24.33c0,17.485-12.048,31.659-26.91,31.659C351.4,96.5,341.81,88.468,337.75,77.039Z" transform="translate(1352.499 935.75) rotate(180)" fill="#bb371a"/>
    <path id="Union_352" data-name="Union 352" d="M337.75,77.039C333.69,88.468,324.1,96.5,312.91,96.5,298.048,96.5,286,82.326,286,64.841a34.044,34.044,0,0,1,9.691-24.33L337.75-7l42.059,47.511a34.044,34.044,0,0,1,9.691,24.33c0,17.485-12.048,31.659-26.91,31.659C351.4,96.5,341.81,88.468,337.75,77.039Z" transform="translate(1545 935.75) rotate(180)" fill="#bb371a"/>
    <path id="Union_356" data-name="Union 356" d="M337.75,77.039C333.69,88.468,324.1,96.5,312.91,96.5,298.048,96.5,286,82.326,286,64.841a34.044,34.044,0,0,1,9.691-24.33L337.75-7l42.059,47.511a34.044,34.044,0,0,1,9.691,24.33c0,17.485-12.048,31.659-26.91,31.659C351.4,96.5,341.81,88.468,337.75,77.039Z" transform="translate(676.999 1021.5)" fill="#bb371a"/>
    <path id="Union_357" data-name="Union 357" d="M337.75,77.039C333.69,88.468,324.1,96.5,312.91,96.5,298.048,96.5,286,82.326,286,64.841a34.044,34.044,0,0,1,9.691-24.33L337.75-7l42.059,47.511a34.044,34.044,0,0,1,9.691,24.33c0,17.485-12.048,31.659-26.91,31.659C351.4,96.5,341.81,88.468,337.75,77.039Z" transform="translate(868.5 1021.5)" fill="#bb371a"/>
    <path id="Union_358" data-name="Union 358" d="M337.75,77.039C333.69,88.468,324.1,96.5,312.91,96.5,298.048,96.5,286,82.326,286,64.841a34.044,34.044,0,0,1,9.691-24.33L337.75-7l42.059,47.511a34.044,34.044,0,0,1,9.691,24.33c0,17.485-12.048,31.659-26.91,31.659C351.4,96.5,341.81,88.468,337.75,77.039Z" transform="translate(770.75 934)" fill="#bb371a"/>
  </g>
</svg>
