<svg xmlns="http://www.w3.org/2000/svg" width="404" height="550" viewBox="0 0 404 550">
  <g id="eight_diamond" transform="translate(-909 -616)">
    <rect id="Rectangle_25" data-name="Rectangle 25" width="404" height="550" rx="8" transform="translate(909 616)" fill="#fff"/>
    <rect id="Rectangle_26" data-name="Rectangle 26" width="296" height="454" transform="translate(963 664)" fill="#fff"/>
    <text id="_8" data-name="8" transform="translate(921 664)" fill="#bb371a" font-size="48" font-family="Georama" font-weight="800"><tspan x="0" y="0">8</tspan></text>
    <text id="_8-2" data-name="8" transform="translate(1301 1118) rotate(180)" fill="#bb371a" font-size="48" font-family="Georama" font-weight="800"><tspan x="0" y="0">8</tspan></text>
    <rect id="Rectangle_75" data-name="Rectangle 75" width="24" height="24" transform="translate(936.971 678) rotate(45)" fill="#bb371a"/>
    <rect id="Rectangle_79" data-name="Rectangle 79" width="24" height="24" transform="translate(1285.029 1070.059) rotate(45)" fill="#bb371a"/>
    <rect id="Rectangle_90" data-name="Rectangle 90" width="73.172" height="73.172" transform="translate(1014.779 664.019) rotate(45)" fill="#bb371a"/>
    <rect id="Rectangle_93" data-name="Rectangle 93" width="73.172" height="73.172" transform="translate(1206.259 839.269) rotate(45)" fill="#bb371a"/>
    <rect id="Rectangle_92" data-name="Rectangle 92" width="73.172" height="73.172" transform="translate(1014.778 839.26) rotate(45)" fill="#bb371a"/>
    <rect id="Rectangle_95" data-name="Rectangle 95" width="73.172" height="73.172" transform="translate(1014.779 1014.519) rotate(45)" fill="#bb371a"/>
    <rect id="Rectangle_94" data-name="Rectangle 94" width="73.172" height="73.172" transform="translate(1206.26 1014.519) rotate(45)" fill="#bb371a"/>
    <rect id="Rectangle_89" data-name="Rectangle 89" width="73.172" height="73.172" transform="translate(1206.26 664.019) rotate(45)" fill="#bb371a"/>
    <rect id="Rectangle_91" data-name="Rectangle 91" width="73.172" height="73.172" transform="translate(1110.5 751.76) rotate(45)" fill="#bb371a"/>
    <rect id="Rectangle_96" data-name="Rectangle 96" width="73.172" height="73.172" transform="translate(1111 926.76) rotate(45)" fill="#bb371a"/>
  </g>
</svg>
