<svg xmlns="http://www.w3.org/2000/svg" width="404" height="550" viewBox="0 0 404 550">
  <g id="eight_clover" transform="translate(-909 -616)">
    <rect id="Rectangle_25" data-name="Rectangle 25" width="404" height="550" rx="8" transform="translate(909 616)" fill="#fff"/>
    <rect id="Rectangle_26" data-name="Rectangle 26" width="296" height="454" transform="translate(963 664)" fill="#fff"/>
    <text id="_8" data-name="8" transform="translate(921 664)" font-size="48" font-family="Georama" font-weight="800"><tspan x="0" y="0">8</tspan></text>
    <path id="Union_60" data-name="Union 60" d="M297.392,25l2.274-6.745a8.32,8.32,0,1,1-5.68-14.688,8.32,8.32,0,1,1,16.026,0,8.32,8.32,0,1,1-5.591,14.762L306.672,25Z" transform="translate(636 685)"/>
    <path id="Union_52" data-name="Union 52" d="M297.392,25l2.274-6.745a8.32,8.32,0,1,1-5.68-14.688,8.32,8.32,0,1,1,16.026,0,8.32,8.32,0,1,1-5.591,14.762L306.672,25Z" transform="translate(1587 1097) rotate(180)"/>
    <path id="Union_58" data-name="Union 58" d="M322.846,96.5,330.2,74.684a26.91,26.91,0,1,1-18.37-47.508,26.91,26.91,0,1,1,51.835,0,26.91,26.91,0,1,1-18.083,47.746L352.861,96.5Z" transform="translate(677 671)"/>
    <path id="Union_55" data-name="Union 55" d="M322.846,96.5,330.2,74.684a26.91,26.91,0,1,1-18.37-47.508,26.91,26.91,0,1,1,51.835,0,26.91,26.91,0,1,1-18.083,47.746L352.861,96.5Z" transform="translate(1352.5 1111) rotate(180)"/>
    <path id="Union_59" data-name="Union 59" d="M322.846,96.5,330.2,74.684a26.91,26.91,0,1,1-18.37-47.508,26.91,26.91,0,1,1,51.835,0,26.91,26.91,0,1,1-18.083,47.746L352.861,96.5Z" transform="translate(869.5 671)"/>
    <path id="Union_53" data-name="Union 53" d="M322.846,96.5,330.2,74.684a26.91,26.91,0,1,1-18.37-47.508,26.91,26.91,0,1,1,51.835,0,26.91,26.91,0,1,1-18.083,47.746L352.861,96.5Z" transform="translate(1545 1111) rotate(180)"/>
    <path id="Union_56" data-name="Union 56" d="M322.846,96.5,330.2,74.684a26.91,26.91,0,1,1-18.37-47.508,26.91,26.91,0,1,1,51.835,0,26.91,26.91,0,1,1-18.083,47.746L352.861,96.5Z" transform="translate(677 846.25)"/>
    <text id="_8-2" data-name="8" transform="translate(1301 1118) rotate(180)" font-size="48" font-family="Georama" font-weight="800"><tspan x="0" y="0">8</tspan></text>
    <path id="Union_54" data-name="Union 54" d="M322.846,96.5,330.2,74.684a26.91,26.91,0,1,1-18.37-47.508,26.91,26.91,0,1,1,51.835,0,26.91,26.91,0,1,1-18.083,47.746L352.861,96.5Z" transform="translate(869.5 846.25)"/>
    <path id="Union_57" data-name="Union 57" d="M322.846,96.5,330.2,74.684a26.91,26.91,0,1,1-18.37-47.508,26.91,26.91,0,1,1,51.835,0,26.91,26.91,0,1,1-18.083,47.746L352.861,96.5Z" transform="translate(773.25 758.75)"/>
    <path id="Union_61" data-name="Union 61" d="M322.846,96.5,330.2,74.684a26.91,26.91,0,1,1-18.37-47.508,26.91,26.91,0,1,1,51.835,0,26.91,26.91,0,1,1-18.083,47.746L352.861,96.5Z" transform="translate(1448.75 1023.5) rotate(180)"/>
  </g>
</svg>
