<svg xmlns="http://www.w3.org/2000/svg" width="404" height="550" viewBox="0 0 404 550">
  <g id="five_clover" transform="translate(-1783 -26)">
    <rect id="Rectangle_19" data-name="Rectangle 19" width="404" height="550" rx="8" transform="translate(1783 26)" fill="#fff"/>
    <rect id="Rectangle_20" data-name="Rectangle 20" width="296" height="454" transform="translate(1837 74)" fill="#fff"/>
    <text id="_5" data-name="5" transform="translate(1795 74)" font-size="48" font-family="Georama" font-weight="800"><tspan x="0" y="0">5</tspan></text>
    <path id="Union_32" data-name="Union 32" d="M297.392,25l2.274-6.745a8.32,8.32,0,1,1-5.68-14.688,8.32,8.32,0,1,1,16.026,0,8.32,8.32,0,1,1-5.591,14.762L306.672,25Z" transform="translate(1510 95)"/>
    <text id="_5-2" data-name="5" transform="translate(2175 528) rotate(180)" font-size="48" font-family="Georama" font-weight="800"><tspan x="0" y="0">5</tspan></text>
    <path id="Union_27" data-name="Union 27" d="M297.392,25l2.274-6.745a8.32,8.32,0,1,1-5.68-14.688,8.32,8.32,0,1,1,16.026,0,8.32,8.32,0,1,1-5.591,14.762L306.672,25Z" transform="translate(2461 507) rotate(180)"/>
    <path id="Union_30" data-name="Union 30" d="M322.846,96.5,330.2,74.684a26.91,26.91,0,1,1-18.37-47.508,26.91,26.91,0,1,1,51.835,0,26.91,26.91,0,1,1-18.083,47.746L352.861,96.5Z" transform="translate(1551 81)"/>
    <path id="Union_31" data-name="Union 31" d="M322.846,96.5,330.2,74.684a26.91,26.91,0,1,1-18.37-47.508,26.91,26.91,0,1,1,51.835,0,26.91,26.91,0,1,1-18.083,47.746L352.861,96.5Z" transform="translate(2226.5 521) rotate(180)"/>
    <path id="Union_29" data-name="Union 29" d="M322.846,96.5,330.2,74.684a26.91,26.91,0,1,1-18.37-47.508,26.91,26.91,0,1,1,51.835,0,26.91,26.91,0,1,1-18.083,47.746L352.861,96.5Z" transform="translate(1743.5 81)"/>
    <path id="Union_28" data-name="Union 28" d="M322.846,96.5,330.2,74.684a26.91,26.91,0,1,1-18.37-47.508,26.91,26.91,0,1,1,51.835,0,26.91,26.91,0,1,1-18.083,47.746L352.861,96.5Z" transform="translate(2419 521) rotate(180)"/>
    <path id="Union_34" data-name="Union 34" d="M322.846,96.5,330.2,74.684a26.91,26.91,0,1,1-18.37-47.508,26.91,26.91,0,1,1,51.835,0,26.91,26.91,0,1,1-18.083,47.746L352.861,96.5Z" transform="translate(1647.25 256.25)"/>
  </g>
</svg>
