<svg xmlns="http://www.w3.org/2000/svg" width="404" height="550" viewBox="0 0 404 550">
  <g id="five_heart" transform="translate(-1783 -26)">
    <rect id="Rectangle_19" data-name="Rectangle 19" width="404" height="550" rx="8" transform="translate(1783 26)" fill="#fff"/>
    <rect id="Rectangle_20" data-name="Rectangle 20" width="296" height="454" transform="translate(1837 74)" fill="#fff"/>
    <text id="_5" data-name="5" transform="translate(1795 74)" fill="#bb371a" font-size="48" font-family="Georama" font-weight="800"><tspan x="0" y="0">5</tspan></text>
    <text id="_5-2" data-name="5" transform="translate(2175 528) rotate(180)" fill="#bb371a" font-size="48" font-family="Georama" font-weight="800"><tspan x="0" y="0">5</tspan></text>
    <path id="Union_312" data-name="Union 312" d="M302,18.983C300.745,22.517,297.779,25,294.32,25c-4.6,0-8.32-4.382-8.32-9.788a10.526,10.526,0,0,1,3-7.522L302-7,315,7.689a10.526,10.526,0,0,1,3,7.522c0,5.406-3.725,9.788-8.32,9.788C306.221,25,303.255,22.517,302,18.983Z" transform="translate(2112 113) rotate(180)" fill="#bb371a"/>
    <path id="Union_308" data-name="Union 308" d="M302,18.983C300.745,22.517,297.779,25,294.32,25c-4.6,0-8.32-4.382-8.32-9.788a10.526,10.526,0,0,1,3-7.522L302-7,315,7.689a10.526,10.526,0,0,1,3,7.522c0,5.406-3.725,9.788-8.32,9.788C306.221,25,303.255,22.517,302,18.983Z" transform="translate(1856 489)" fill="#bb371a"/>
    <path id="Union_324" data-name="Union 324" d="M337.75,77.039C333.69,88.468,324.1,96.5,312.91,96.5,298.048,96.5,286,82.326,286,64.841a34.044,34.044,0,0,1,9.691-24.33L337.75-7l42.059,47.511a34.044,34.044,0,0,1,9.691,24.33c0,17.485-12.048,31.659-26.91,31.659C351.4,96.5,341.81,88.468,337.75,77.039Z" transform="translate(2226.5 170.5) rotate(180)" fill="#bb371a"/>
    <path id="Union_325" data-name="Union 325" d="M337.75,77.039C333.69,88.468,324.1,96.5,312.91,96.5,298.048,96.5,286,82.326,286,64.841a34.044,34.044,0,0,1,9.691-24.33L337.75-7l42.059,47.511a34.044,34.044,0,0,1,9.691,24.33c0,17.485-12.048,31.659-26.91,31.659C351.4,96.5,341.81,88.468,337.75,77.039Z" transform="translate(2420 170.5) rotate(180)" fill="#bb371a"/>
    <path id="Union_326" data-name="Union 326" d="M337.75,77.039C333.69,88.468,324.1,96.5,312.91,96.5,298.048,96.5,286,82.326,286,64.841a34.044,34.044,0,0,1,9.691-24.33L337.75-7l42.059,47.511a34.044,34.044,0,0,1,9.691,24.33c0,17.485-12.048,31.659-26.91,31.659C351.4,96.5,341.81,88.468,337.75,77.039Z" transform="translate(1551 431.5)" fill="#bb371a"/>
    <path id="Union_327" data-name="Union 327" d="M337.75,77.039C333.69,88.468,324.1,96.5,312.91,96.5,298.048,96.5,286,82.326,286,64.841a34.044,34.044,0,0,1,9.691-24.33L337.75-7l42.059,47.511a34.044,34.044,0,0,1,9.691,24.33c0,17.485-12.048,31.659-26.91,31.659C351.4,96.5,341.81,88.468,337.75,77.039Z" transform="translate(1743.5 431.5)" fill="#bb371a"/>
    <path id="Union_328" data-name="Union 328" d="M337.75,77.039C333.69,88.468,324.1,96.5,312.91,96.5,298.048,96.5,286,82.326,286,64.841a34.044,34.044,0,0,1,9.691-24.33L337.75-7l42.059,47.511a34.044,34.044,0,0,1,9.691,24.33c0,17.485-12.048,31.659-26.91,31.659C351.4,96.5,341.81,88.468,337.75,77.039Z" transform="translate(2322.75 345.75) rotate(180)" fill="#bb371a"/>
  </g>
</svg>
