<svg xmlns="http://www.w3.org/2000/svg" width="404" height="550" viewBox="0 0 404 550">
  <g id="four_spade" transform="translate(-1346 -26)">
    <rect id="Rectangle_17" data-name="Rectangle 17" width="404" height="550" rx="8" transform="translate(1346 26)" fill="#fff"/>
    <rect id="Rectangle_18" data-name="Rectangle 18" width="296" height="454" transform="translate(1400 74)" fill="#fff"/>
    <text id="_4" data-name="4" transform="translate(1358 74)" font-size="48" font-family="Georama" font-weight="800"><tspan x="0" y="0">4</tspan></text>
    <text id="_4-2" data-name="4" transform="translate(1738 528) rotate(180)" font-size="48" font-family="Georama" font-weight="800"><tspan x="0" y="0">4</tspan></text>
    <path id="Union_113" data-name="Union 113" d="M297.392,25l2.274-6.745A8.32,8.32,0,1,1,289,5.486L302-7,315,5.486a8.32,8.32,0,0,1-10.581,12.843L306.672,25Z" transform="translate(1072 95)"/>
    <path id="Union_123" data-name="Union 123" d="M297.392,25l2.274-6.745A8.32,8.32,0,1,1,289,5.486L302-7,315,5.486a8.32,8.32,0,0,1-10.581,12.843L306.672,25Z" transform="translate(2024 507) rotate(180)"/>
    <path id="Union_137" data-name="Union 137" d="M322.846,96.5,330.2,74.684a26.911,26.911,0,1,1-34.511-41.3L337.75-7l42.059,40.384a26.911,26.911,0,0,1-34.224,41.538L352.861,96.5Z" transform="translate(1114 81)"/>
    <path id="Union_139" data-name="Union 139" d="M322.846,96.5,330.2,74.684a26.911,26.911,0,1,1-34.511-41.3L337.75-7l42.059,40.384a26.911,26.911,0,0,1-34.224,41.538L352.861,96.5Z" transform="translate(1304.5 81)"/>
    <path id="Union_141" data-name="Union 141" d="M322.846,96.5,330.2,74.684a26.911,26.911,0,1,1-34.511-41.3L337.75-7l42.059,40.384a26.911,26.911,0,0,1-34.224,41.538L352.861,96.5Z" transform="translate(1789.5 521) rotate(180)"/>
    <path id="Union_143" data-name="Union 143" d="M322.846,96.5,330.2,74.684a26.911,26.911,0,1,1-34.511-41.3L337.75-7l42.059,40.384a26.911,26.911,0,0,1-34.224,41.538L352.861,96.5Z" transform="translate(1980 521) rotate(180)"/>
  </g>
</svg>
