<svg xmlns="http://www.w3.org/2000/svg" width="404" height="550" viewBox="0 0 404 550">
  <g id="four_heart" transform="translate(-1346 -26)">
    <rect id="Rectangle_17" data-name="Rectangle 17" width="404" height="550" rx="8" transform="translate(1346 26)" fill="#fff"/>
    <rect id="Rectangle_18" data-name="Rectangle 18" width="296" height="454" transform="translate(1400 74)" fill="#fff"/>
    <text id="_4" data-name="4" transform="translate(1358 74)" fill="#bb371a" font-size="48" font-family="Georama" font-weight="800"><tspan x="0" y="0">4</tspan></text>
    <text id="_4-2" data-name="4" transform="translate(1738 528) rotate(180)" fill="#bb371a" font-size="48" font-family="Georama" font-weight="800"><tspan x="0" y="0">4</tspan></text>
    <path id="Union_311" data-name="Union 311" d="M302,18.983C300.745,22.517,297.779,25,294.32,25c-4.6,0-8.32-4.382-8.32-9.788a10.526,10.526,0,0,1,3-7.522L302-7,315,7.689a10.526,10.526,0,0,1,3,7.522c0,5.406-3.725,9.788-8.32,9.788C306.221,25,303.255,22.517,302,18.983Z" transform="translate(1675 113) rotate(180)" fill="#bb371a"/>
    <path id="Union_307" data-name="Union 307" d="M302,18.983C300.745,22.517,297.779,25,294.32,25c-4.6,0-8.32-4.382-8.32-9.788a10.526,10.526,0,0,1,3-7.522L302-7,315,7.689a10.526,10.526,0,0,1,3,7.522c0,5.406-3.725,9.788-8.32,9.788C306.221,25,303.255,22.517,302,18.983Z" transform="translate(1421 489)" fill="#bb371a"/>
    <path id="Union_320" data-name="Union 320" d="M337.75,77.039C333.69,88.468,324.1,96.5,312.91,96.5,298.048,96.5,286,82.326,286,64.841a34.044,34.044,0,0,1,9.691-24.33L337.75-7l42.059,47.511a34.044,34.044,0,0,1,9.691,24.33c0,17.485-12.048,31.659-26.91,31.659C351.4,96.5,341.81,88.468,337.75,77.039Z" transform="translate(1789.5 170.5) rotate(180)" fill="#bb371a"/>
    <path id="Union_321" data-name="Union 321" d="M337.75,77.039C333.69,88.468,324.1,96.5,312.91,96.5,298.048,96.5,286,82.326,286,64.841a34.044,34.044,0,0,1,9.691-24.33L337.75-7l42.059,47.511a34.044,34.044,0,0,1,9.691,24.33c0,17.485-12.048,31.659-26.91,31.659C351.4,96.5,341.81,88.468,337.75,77.039Z" transform="translate(1983 170.5) rotate(180)" fill="#bb371a"/>
    <path id="Union_322" data-name="Union 322" d="M337.75,77.039C333.69,88.468,324.1,96.5,312.91,96.5,298.048,96.5,286,82.326,286,64.841a34.044,34.044,0,0,1,9.691-24.33L337.75-7l42.059,47.511a34.044,34.044,0,0,1,9.691,24.33c0,17.485-12.048,31.659-26.91,31.659C351.4,96.5,341.81,88.468,337.75,77.039Z" transform="translate(1114 431.5)" fill="#bb371a"/>
    <path id="Union_323" data-name="Union 323" d="M337.75,77.039C333.69,88.468,324.1,96.5,312.91,96.5,298.048,96.5,286,82.326,286,64.841a34.044,34.044,0,0,1,9.691-24.33L337.75-7l42.059,47.511a34.044,34.044,0,0,1,9.691,24.33c0,17.485-12.048,31.659-26.91,31.659C351.4,96.5,341.81,88.468,337.75,77.039Z" transform="translate(1306.5 431.5)" fill="#bb371a"/>
  </g>
</svg>
