<svg xmlns="http://www.w3.org/2000/svg" width="404" height="550" viewBox="0 0 404 550">
  <g id="four_clover" transform="translate(-1346 -26)">
    <rect id="Rectangle_17" data-name="Rectangle 17" width="404" height="550" rx="8" transform="translate(1346 26)" fill="#fff"/>
    <rect id="Rectangle_18" data-name="Rectangle 18" width="296" height="454" transform="translate(1400 74)" fill="#fff"/>
    <text id="_4" data-name="4" transform="translate(1358 74)" font-size="48" font-family="Georama" font-weight="800"><tspan x="0" y="0">4</tspan></text>
    <path id="Union_21" data-name="Union 21" d="M297.392,25l2.274-6.745a8.32,8.32,0,1,1-5.68-14.688,8.32,8.32,0,1,1,16.026,0,8.32,8.32,0,1,1-5.591,14.762L306.672,25Z" transform="translate(1073 95)"/>
    <text id="_4-2" data-name="4" transform="translate(1738 528) rotate(180)" font-size="48" font-family="Georama" font-weight="800"><tspan x="0" y="0">4</tspan></text>
    <path id="Union_22" data-name="Union 22" d="M297.392,25l2.274-6.745a8.32,8.32,0,1,1-5.68-14.688,8.32,8.32,0,1,1,16.026,0,8.32,8.32,0,1,1-5.591,14.762L306.672,25Z" transform="translate(2024 507) rotate(180)"/>
    <path id="Union_23" data-name="Union 23" d="M322.846,96.5,330.2,74.684a26.91,26.91,0,1,1-18.37-47.508,26.91,26.91,0,1,1,51.835,0,26.91,26.91,0,1,1-18.083,47.746L352.861,96.5Z" transform="translate(1114 81)"/>
    <path id="Union_24" data-name="Union 24" d="M322.846,96.5,330.2,74.684a26.91,26.91,0,1,1-18.37-47.508,26.91,26.91,0,1,1,51.835,0,26.91,26.91,0,1,1-18.083,47.746L352.861,96.5Z" transform="translate(1789.5 521) rotate(180)"/>
    <path id="Union_25" data-name="Union 25" d="M322.846,96.5,330.2,74.684a26.91,26.91,0,1,1-18.37-47.508,26.91,26.91,0,1,1,51.835,0,26.91,26.91,0,1,1-18.083,47.746L352.861,96.5Z" transform="translate(1306.5 81)"/>
    <path id="Union_26" data-name="Union 26" d="M322.846,96.5,330.2,74.684a26.91,26.91,0,1,1-18.37-47.508,26.91,26.91,0,1,1,51.835,0,26.91,26.91,0,1,1-18.083,47.746L352.861,96.5Z" transform="translate(1982 521) rotate(180)"/>
  </g>
</svg>
