<svg xmlns="http://www.w3.org/2000/svg" width="404" height="550" viewBox="0 0 404 550">
  <g id="jack_heart" transform="translate(-35 -1206)">
    <rect id="Rectangle_31" data-name="Rectangle 31" width="404" height="550" rx="8" transform="translate(35 1206)" fill="#fff"/>
    <rect id="Rectangle_32" data-name="Rectangle 32" width="296" height="454" rx="16" transform="translate(89 1254)" fill="#bb371a"/>
    <text id="J" transform="translate(47 1254)" fill="#bb371a" font-size="48" font-family="Georama" font-weight="800"><tspan x="0" y="0">J</tspan></text>
    <text id="J-2" data-name="J" transform="translate(427 1708) rotate(180)" fill="#bb371a" font-size="48" font-family="Georama" font-weight="800"><tspan x="0" y="0">J</tspan></text>
    <path id="Union_381" data-name="Union 381" d="M302,18.983C300.745,22.517,297.779,25,294.32,25c-4.6,0-8.32-4.382-8.32-9.788a10.526,10.526,0,0,1,3-7.522L302-7,315,7.689a10.526,10.526,0,0,1,3,7.522c0,5.406-3.725,9.788-8.32,9.788C306.221,25,303.255,22.517,302,18.983Z" transform="translate(113 1669)" fill="#bb371a"/>
    <path id="Union_378" data-name="Union 378" d="M302,18.983C300.745,22.517,297.779,25,294.32,25c-4.6,0-8.32-4.382-8.32-9.788a10.526,10.526,0,0,1,3-7.522L302-7,315,7.689a10.526,10.526,0,0,1,3,7.522c0,5.406-3.725,9.788-8.32,9.788C306.221,25,303.255,22.517,302,18.983Z" transform="translate(361 1293) rotate(180)" fill="#bb371a"/>
    <path id="Union_384" data-name="Union 384" d="M327.588,60.536c-3.263,9.185-10.972,15.639-19.962,15.639C295.682,76.175,286,64.784,286,50.733a27.358,27.358,0,0,1,7.788-19.552L327.588-7l33.8,38.181a27.358,27.358,0,0,1,7.788,19.552c0,14.051-9.682,25.442-21.625,25.442C338.559,76.175,330.85,69.721,327.588,60.536Z" transform="translate(466.924 1345.5) rotate(180)" fill="#fff"/>
    <path id="Union_385" data-name="Union 385" d="M380.75,146.869c-7.433,20.926-25,35.631-45.48,35.631-27.211,0-49.27-25.952-49.27-57.965,0-17.906,6.9-33.914,17.744-44.547L380.75-7l77.006,86.989C468.6,90.621,475.5,106.63,475.5,124.535c0,32.013-22.059,57.965-49.27,57.965C405.747,182.5,388.183,167.795,380.75,146.869Z" transform="translate(614.837 1568.75) rotate(180)" fill="#fff"/>
    <path id="Union_386" data-name="Union 386" d="M335.082,72.706c-3.851,10.84-12.949,18.457-23.559,18.457C297.427,91.163,286,77.72,286,61.137a32.288,32.288,0,0,1,9.192-23.076L335.082-7l39.89,45.061a32.288,32.288,0,0,1,9.192,23.076c0,16.583-11.427,30.026-25.522,30.026C348.031,91.163,338.932,83.546,335.082,72.706Z" transform="translate(569.168 1523.082) rotate(180)" fill="#bb371a"/>
    <path id="Union_387" data-name="Union 387" d="M327.588,60.536c-3.263,9.185-10.972,15.639-19.962,15.639C295.682,76.175,286,64.784,286,50.733a27.358,27.358,0,0,1,7.788-19.552L327.588-7l33.8,38.181a27.358,27.358,0,0,1,7.788,19.552c0,14.051-9.682,25.442-21.625,25.442C338.559,76.175,330.85,69.721,327.588,60.536Z" transform="translate(6.075 1620.5)" fill="#fff"/>
  </g>
</svg>
