<svg xmlns="http://www.w3.org/2000/svg" width="404" height="550" viewBox="0 0 404 550">
  <g id="nine_clover" transform="translate(-1346 -616)">
    <rect id="Rectangle_27" data-name="Rectangle 27" width="404" height="550" rx="8" transform="translate(1346 616)" fill="#fff"/>
    <rect id="Rectangle_28" data-name="Rectangle 28" width="296" height="454" transform="translate(1400 664)" fill="#fff"/>
    <text id="_9" data-name="9" transform="translate(1358 664)" font-size="48" font-family="Georama" font-weight="800"><tspan x="0" y="0">9</tspan></text>
    <path id="Union_63" data-name="Union 63" d="M297.392,25l2.274-6.745a8.32,8.32,0,1,1-5.68-14.688,8.32,8.32,0,1,1,16.026,0,8.32,8.32,0,1,1-5.591,14.762L306.672,25Z" transform="translate(1073 685)"/>
    <path id="Union_71" data-name="Union 71" d="M297.392,25l2.274-6.745a8.32,8.32,0,1,1-5.68-14.688,8.32,8.32,0,1,1,16.026,0,8.32,8.32,0,1,1-5.591,14.762L306.672,25Z" transform="translate(2024 1097) rotate(180)"/>
    <path id="Union_62" data-name="Union 62" d="M322.846,96.5,330.2,74.684a26.91,26.91,0,1,1-18.37-47.508,26.91,26.91,0,1,1,51.835,0,26.91,26.91,0,1,1-18.083,47.746L352.861,96.5Z" transform="translate(1114 671)"/>
    <path id="Union_69" data-name="Union 69" d="M322.846,96.5,330.2,74.684a26.91,26.91,0,1,1-18.37-47.508,26.91,26.91,0,1,1,51.835,0,26.91,26.91,0,1,1-18.083,47.746L352.861,96.5Z" transform="translate(1789.5 1111) rotate(180)"/>
    <path id="Union_64" data-name="Union 64" d="M322.846,96.5,330.2,74.684a26.91,26.91,0,1,1-18.37-47.508,26.91,26.91,0,1,1,51.835,0,26.91,26.91,0,1,1-18.083,47.746L352.861,96.5Z" transform="translate(1306.5 671)"/>
    <path id="Union_70" data-name="Union 70" d="M322.846,96.5,330.2,74.684a26.91,26.91,0,1,1-18.37-47.508,26.91,26.91,0,1,1,51.835,0,26.91,26.91,0,1,1-18.083,47.746L352.861,96.5Z" transform="translate(1982 1111) rotate(180)"/>
    <path id="Union_66" data-name="Union 66" d="M322.846,96.5,330.2,74.684a26.91,26.91,0,1,1-18.37-47.508,26.91,26.91,0,1,1,51.835,0,26.91,26.91,0,1,1-18.083,47.746L352.861,96.5Z" transform="translate(1114 787.5)"/>
    <text id="_9-2" data-name="9" transform="translate(1738 1118) rotate(180)" font-size="48" font-family="Georama" font-weight="800"><tspan x="0" y="0">9</tspan></text>
    <path id="Union_67" data-name="Union 67" d="M322.846,96.5,330.2,74.684a26.91,26.91,0,1,1-18.37-47.508,26.91,26.91,0,1,1,51.835,0,26.91,26.91,0,1,1-18.083,47.746L352.861,96.5Z" transform="translate(1306.5 787.5)"/>
    <path id="Union_68" data-name="Union 68" d="M322.846,96.5,330.2,74.684a26.91,26.91,0,1,1-18.37-47.508,26.91,26.91,0,1,1,51.835,0,26.91,26.91,0,1,1-18.083,47.746L352.861,96.5Z" transform="translate(1789.5 994.5) rotate(180)"/>
    <path id="Union_72" data-name="Union 72" d="M322.846,96.5,330.2,74.684a26.91,26.91,0,1,1-18.37-47.508,26.91,26.91,0,1,1,51.835,0,26.91,26.91,0,1,1-18.083,47.746L352.861,96.5Z" transform="translate(1982 994.5) rotate(180)"/>
    <path id="Union_73" data-name="Union 73" d="M322.846,96.5,330.2,74.684a26.91,26.91,0,1,1-18.37-47.508,26.91,26.91,0,1,1,51.835,0,26.91,26.91,0,1,1-18.083,47.746L352.861,96.5Z" transform="translate(1210.25 839.25)"/>
  </g>
</svg>
