<svg xmlns="http://www.w3.org/2000/svg" width="404" height="550" viewBox="0 0 404 550">
  <g id="seven_clover" transform="translate(-472 -616)">
    <rect id="Rectangle_23" data-name="Rectangle 23" width="404" height="550" rx="8" transform="translate(472 616)" fill="#fff"/>
    <rect id="Rectangle_24" data-name="Rectangle 24" width="296" height="454" transform="translate(526 664)" fill="#fff"/>
    <text id="_7" data-name="7" transform="translate(484 664)" font-size="48" font-family="Georama" font-weight="800"><tspan x="0" y="0">7</tspan></text>
    <path id="Union_50" data-name="Union 50" d="M297.392,25l2.274-6.745a8.32,8.32,0,1,1-5.68-14.688,8.32,8.32,0,1,1,16.026,0,8.32,8.32,0,1,1-5.591,14.762L306.672,25Z" transform="translate(199 685)"/>
    <path id="Union_43" data-name="Union 43" d="M297.392,25l2.274-6.745a8.32,8.32,0,1,1-5.68-14.688,8.32,8.32,0,1,1,16.026,0,8.32,8.32,0,1,1-5.591,14.762L306.672,25Z" transform="translate(1150 1097) rotate(180)"/>
    <path id="Union_48" data-name="Union 48" d="M322.846,96.5,330.2,74.684a26.91,26.91,0,1,1-18.37-47.508,26.91,26.91,0,1,1,51.835,0,26.91,26.91,0,1,1-18.083,47.746L352.861,96.5Z" transform="translate(240 671)"/>
    <path id="Union_45" data-name="Union 45" d="M322.846,96.5,330.2,74.684a26.91,26.91,0,1,1-18.37-47.508,26.91,26.91,0,1,1,51.835,0,26.91,26.91,0,1,1-18.083,47.746L352.861,96.5Z" transform="translate(915.5 1111) rotate(180)"/>
    <path id="Union_49" data-name="Union 49" d="M322.846,96.5,330.2,74.684a26.91,26.91,0,1,1-18.37-47.508,26.91,26.91,0,1,1,51.835,0,26.91,26.91,0,1,1-18.083,47.746L352.861,96.5Z" transform="translate(432.5 671)"/>
    <path id="Union_44" data-name="Union 44" d="M322.846,96.5,330.2,74.684a26.91,26.91,0,1,1-18.37-47.508,26.91,26.91,0,1,1,51.835,0,26.91,26.91,0,1,1-18.083,47.746L352.861,96.5Z" transform="translate(1108 1111) rotate(180)"/>
    <path id="Union_46" data-name="Union 46" d="M322.846,96.5,330.2,74.684a26.91,26.91,0,1,1-18.37-47.508,26.91,26.91,0,1,1,51.835,0,26.91,26.91,0,1,1-18.083,47.746L352.861,96.5Z" transform="translate(240 846.25)"/>
    <text id="_7-2" data-name="7" transform="translate(864 1118) rotate(180)" font-size="48" font-family="Georama" font-weight="800"><tspan x="0" y="0">7</tspan></text>
    <path id="Union_47" data-name="Union 47" d="M322.846,96.5,330.2,74.684a26.91,26.91,0,1,1-18.37-47.508,26.91,26.91,0,1,1,51.835,0,26.91,26.91,0,1,1-18.083,47.746L352.861,96.5Z" transform="translate(432.5 846.25)"/>
    <path id="Union_51" data-name="Union 51" d="M322.846,96.5,330.2,74.684a26.91,26.91,0,1,1-18.37-47.508,26.91,26.91,0,1,1,51.835,0,26.91,26.91,0,1,1-18.083,47.746L352.861,96.5Z" transform="translate(336.25 758.75)"/>
  </g>
</svg>
