<svg xmlns="http://www.w3.org/2000/svg" width="404" height="550" viewBox="0 0 404 550">
  <g id="six_clover" transform="translate(-35 -616)">
    <rect id="Rectangle_21" data-name="Rectangle 21" width="404" height="550" rx="8" transform="translate(35 616)" fill="#fff"/>
    <rect id="Rectangle_22" data-name="Rectangle 22" width="296" height="454" transform="translate(89 664)" fill="#fff"/>
    <text id="_6" data-name="6" transform="translate(47 664)" font-size="48" font-family="Georama" font-weight="800"><tspan x="0" y="0">6</tspan></text>
    <path id="Union_41" data-name="Union 41" d="M297.392,25l2.274-6.745a8.32,8.32,0,1,1-5.68-14.688,8.32,8.32,0,1,1,16.026,0,8.32,8.32,0,1,1-5.591,14.762L306.672,25Z" transform="translate(-238 685)"/>
    <path id="Union_36" data-name="Union 36" d="M297.392,25l2.274-6.745a8.32,8.32,0,1,1-5.68-14.688,8.32,8.32,0,1,1,16.026,0,8.32,8.32,0,1,1-5.591,14.762L306.672,25Z" transform="translate(713 1097) rotate(180)"/>
    <path id="Union_39" data-name="Union 39" d="M322.846,96.5,330.2,74.684a26.91,26.91,0,1,1-18.37-47.508,26.91,26.91,0,1,1,51.835,0,26.91,26.91,0,1,1-18.083,47.746L352.861,96.5Z" transform="translate(-197 671)"/>
    <path id="Union_38" data-name="Union 38" d="M322.846,96.5,330.2,74.684a26.91,26.91,0,1,1-18.37-47.508,26.91,26.91,0,1,1,51.835,0,26.91,26.91,0,1,1-18.083,47.746L352.861,96.5Z" transform="translate(478.5 1111) rotate(180)"/>
    <path id="Union_40" data-name="Union 40" d="M322.846,96.5,330.2,74.684a26.91,26.91,0,1,1-18.37-47.508,26.91,26.91,0,1,1,51.835,0,26.91,26.91,0,1,1-18.083,47.746L352.861,96.5Z" transform="translate(-4.5 671)"/>
    <path id="Union_35" data-name="Union 35" d="M322.846,96.5,330.2,74.684a26.91,26.91,0,1,1-18.37-47.508,26.91,26.91,0,1,1,51.835,0,26.91,26.91,0,1,1-18.083,47.746L352.861,96.5Z" transform="translate(671 1111) rotate(180)"/>
    <path id="Union_37" data-name="Union 37" d="M322.846,96.5,330.2,74.684a26.91,26.91,0,1,1-18.37-47.508,26.91,26.91,0,1,1,51.835,0,26.91,26.91,0,1,1-18.083,47.746L352.861,96.5Z" transform="translate(-197 846.25)"/>
    <text id="_6-2" data-name="6" transform="translate(427 1118) rotate(180)" font-size="48" font-family="Georama" font-weight="800"><tspan x="0" y="0">6</tspan></text>
    <path id="Union_42" data-name="Union 42" d="M322.846,96.5,330.2,74.684a26.91,26.91,0,1,1-18.37-47.508,26.91,26.91,0,1,1,51.835,0,26.91,26.91,0,1,1-18.083,47.746L352.861,96.5Z" transform="translate(-4.5 846.25)"/>
  </g>
</svg>
