<svg xmlns="http://www.w3.org/2000/svg" width="404" height="550" viewBox="0 0 404 550">
  <g id="six_diamond" transform="translate(-35 -616)">
    <g id="Group_13" data-name="Group 13">
      <rect id="Rectangle_21" data-name="Rectangle 21" width="404" height="550" rx="8" transform="translate(35 616)" fill="#fff"/>
      <rect id="Rectangle_22" data-name="Rectangle 22" width="296" height="454" transform="translate(89 664)" fill="#fff"/>
      <text id="_6" data-name="6" transform="translate(47 664)" fill="#bb371a" font-size="48" font-family="Georama" font-weight="800"><tspan x="0" y="0">6</tspan></text>
      <text id="_6-2" data-name="6" transform="translate(427 1118) rotate(180)" fill="#bb371a" font-size="48" font-family="Georama" font-weight="800"><tspan x="0" y="0">6</tspan></text>
      <rect id="Rectangle_65" data-name="Rectangle 65" width="24" height="24" transform="translate(62.03 678) rotate(45)" fill="#bb371a"/>
      <rect id="Rectangle_73" data-name="Rectangle 73" width="24" height="24" transform="translate(411.971 1070.059) rotate(45)" fill="#bb371a"/>
      <rect id="Rectangle_66" data-name="Rectangle 66" width="73.172" height="73.172" transform="translate(140.74 664.019) rotate(45)" fill="#bb371a"/>
      <rect id="Rectangle_72" data-name="Rectangle 72" width="73.172" height="73.172" transform="translate(333.259 839.269) rotate(45)" fill="#bb371a"/>
      <rect id="Rectangle_71" data-name="Rectangle 71" width="73.172" height="73.172" transform="translate(140.74 839.25) rotate(45)" fill="#bb371a"/>
      <rect id="Rectangle_67" data-name="Rectangle 67" width="73.172" height="73.172" transform="translate(140.74 1014.5) rotate(45)" fill="#bb371a"/>
      <rect id="Rectangle_68" data-name="Rectangle 68" width="73.172" height="73.172" transform="translate(333.26 1014.519) rotate(45)" fill="#bb371a"/>
      <rect id="Rectangle_69" data-name="Rectangle 69" width="73.172" height="73.172" transform="translate(333.26 664.019) rotate(45)" fill="#bb371a"/>
    </g>
  </g>
</svg>
