<svg xmlns="http://www.w3.org/2000/svg" width="404" height="550" viewBox="0 0 404 550">
  <g id="ten_clover" transform="translate(-1783 -616)">
    <rect id="Rectangle_29" data-name="Rectangle 29" width="404" height="550" rx="8" transform="translate(1783 616)" fill="#fff"/>
    <rect id="Rectangle_30" data-name="Rectangle 30" width="296" height="454" transform="translate(1837 664)" fill="#fff"/>
    <text id="_10" data-name="10" transform="translate(1795 664)" font-size="48" font-family="Georama" font-weight="800"><tspan x="0" y="0">10</tspan></text>
    <path id="Union_84" data-name="Union 84" d="M297.392,25l2.274-6.745a8.32,8.32,0,1,1-5.68-14.688,8.32,8.32,0,1,1,16.026,0,8.32,8.32,0,1,1-5.591,14.762L306.672,25Z" transform="translate(1510 685)"/>
    <path id="Union_74" data-name="Union 74" d="M297.392,25l2.274-6.745a8.32,8.32,0,1,1-5.68-14.688,8.32,8.32,0,1,1,16.026,0,8.32,8.32,0,1,1-5.591,14.762L306.672,25Z" transform="translate(2461 1097) rotate(180)"/>
    <path id="Union_80" data-name="Union 80" d="M322.846,96.5,330.2,74.684a26.91,26.91,0,1,1-18.37-47.508,26.91,26.91,0,1,1,51.835,0,26.91,26.91,0,1,1-18.083,47.746L352.861,96.5Z" transform="translate(1551 671)"/>
    <path id="Union_81" data-name="Union 81" d="M322.846,96.5,330.2,74.684a26.91,26.91,0,1,1-18.37-47.508,26.91,26.91,0,1,1,51.835,0,26.91,26.91,0,1,1-18.083,47.746L352.861,96.5Z" transform="translate(2226.5 1111) rotate(180)"/>
    <path id="Union_79" data-name="Union 79" d="M322.846,96.5,330.2,74.684a26.91,26.91,0,1,1-18.37-47.508,26.91,26.91,0,1,1,51.835,0,26.91,26.91,0,1,1-18.083,47.746L352.861,96.5Z" transform="translate(1743.5 671)"/>
    <path id="Union_75" data-name="Union 75" d="M322.846,96.5,330.2,74.684a26.91,26.91,0,1,1-18.37-47.508,26.91,26.91,0,1,1,51.835,0,26.91,26.91,0,1,1-18.083,47.746L352.861,96.5Z" transform="translate(2419 1111) rotate(180)"/>
    <path id="Union_82" data-name="Union 82" d="M322.846,96.5,330.2,74.684a26.91,26.91,0,1,1-18.37-47.508,26.91,26.91,0,1,1,51.835,0,26.91,26.91,0,1,1-18.083,47.746L352.861,96.5Z" transform="translate(1551 787.5)"/>
    <text id="_10-2" data-name="10" transform="translate(2175 1118) rotate(180)" font-size="48" font-family="Georama" font-weight="800"><tspan x="0" y="0">10</tspan></text>
    <path id="Union_77" data-name="Union 77" d="M322.846,96.5,330.2,74.684a26.91,26.91,0,1,1-18.37-47.508,26.91,26.91,0,1,1,51.835,0,26.91,26.91,0,1,1-18.083,47.746L352.861,96.5Z" transform="translate(1743.5 787.5)"/>
    <path id="Union_83" data-name="Union 83" d="M322.846,96.5,330.2,74.684a26.91,26.91,0,1,1-18.37-47.508,26.91,26.91,0,1,1,51.835,0,26.91,26.91,0,1,1-18.083,47.746L352.861,96.5Z" transform="translate(2226.5 994.5) rotate(180)"/>
    <path id="Union_76" data-name="Union 76" d="M322.846,96.5,330.2,74.684a26.91,26.91,0,1,1-18.37-47.508,26.91,26.91,0,1,1,51.835,0,26.91,26.91,0,1,1-18.083,47.746L352.861,96.5Z" transform="translate(2419 994.5) rotate(180)"/>
    <path id="Union_78" data-name="Union 78" d="M322.846,96.5,330.2,74.684a26.91,26.91,0,1,1-18.37-47.508,26.91,26.91,0,1,1,51.835,0,26.91,26.91,0,1,1-18.083,47.746L352.861,96.5Z" transform="translate(1647.25 735.75)"/>
    <path id="Union_85" data-name="Union 85" d="M322.846,96.5,330.2,74.684a26.91,26.91,0,1,1-18.37-47.508,26.91,26.91,0,1,1,51.835,0,26.91,26.91,0,1,1-18.083,47.746L352.861,96.5Z" transform="translate(2322.75 1046.25) rotate(180)"/>
  </g>
</svg>
