<svg xmlns="http://www.w3.org/2000/svg" width="404" height="550" viewBox="0 0 404 550">
  <g id="ten_spade" transform="translate(-1783 -616)">
    <rect id="Rectangle_29" data-name="Rectangle 29" width="404" height="550" rx="8" transform="translate(1783 616)" fill="#fff"/>
    <rect id="Rectangle_30" data-name="Rectangle 30" width="296" height="454" transform="translate(1837 664)" fill="#fff"/>
    <text id="_10" data-name="10" transform="translate(1795 664)" font-size="48" font-family="Georama" font-weight="800"><tspan x="0" y="0">10</tspan></text>
    <text id="_10-2" data-name="10" transform="translate(2175 1118) rotate(180)" font-size="48" font-family="Georama" font-weight="800"><tspan x="0" y="0">10</tspan></text>
    <path id="Union_165" data-name="Union 165" d="M297.392,25l2.274-6.745A8.32,8.32,0,1,1,289,5.486L302-7,315,5.486a8.32,8.32,0,0,1-10.581,12.843L306.672,25Z" transform="translate(1510 685)"/>
    <path id="Union_173" data-name="Union 173" d="M297.392,25l2.274-6.745A8.32,8.32,0,1,1,289,5.486L302-7,315,5.486a8.32,8.32,0,0,1-10.581,12.843L306.672,25Z" transform="translate(2460 1097) rotate(180)"/>
    <path id="Union_235" data-name="Union 235" d="M322.846,96.5,330.2,74.684a26.911,26.911,0,1,1-34.511-41.3L337.75-7l42.059,40.384a26.911,26.911,0,0,1-34.224,41.538L352.861,96.5Z" transform="translate(1552 671)"/>
    <path id="Union_251" data-name="Union 251" d="M322.846,96.5,330.2,74.684a26.911,26.911,0,1,1-34.511-41.3L337.75-7l42.059,40.384a26.911,26.911,0,0,1-34.224,41.538L352.861,96.5Z" transform="translate(1647.25 735.75)"/>
    <path id="Union_241" data-name="Union 241" d="M322.846,96.5,330.2,74.684a26.911,26.911,0,1,1-34.511-41.3L337.75-7l42.059,40.384a26.911,26.911,0,0,1-34.224,41.538L352.861,96.5Z" transform="translate(1551 787.5)"/>
    <path id="Union_239" data-name="Union 239" d="M322.846,96.5,330.2,74.684a26.911,26.911,0,1,1-34.511-41.3L337.75-7l42.059,40.384a26.911,26.911,0,0,1-34.224,41.538L352.861,96.5Z" transform="translate(1743.5 787.5)"/>
    <path id="Union_237" data-name="Union 237" d="M322.846,96.5,330.2,74.684a26.911,26.911,0,1,1-34.511-41.3L337.75-7l42.059,40.384a26.911,26.911,0,0,1-34.224,41.538L352.861,96.5Z" transform="translate(1744.5 671)"/>
    <path id="Union_249" data-name="Union 249" d="M322.846,96.5,330.2,74.684a26.911,26.911,0,1,1-34.511-41.3L337.75-7l42.059,40.384a26.911,26.911,0,0,1-34.224,41.538L352.861,96.5Z" transform="translate(2227.5 1111) rotate(180)"/>
    <path id="Union_253" data-name="Union 253" d="M322.846,96.5,330.2,74.684a26.911,26.911,0,1,1-34.511-41.3L337.75-7l42.059,40.384a26.911,26.911,0,0,1-34.224,41.538L352.861,96.5Z" transform="translate(2322.75 1046.25) rotate(180)"/>
    <path id="Union_243" data-name="Union 243" d="M322.846,96.5,330.2,74.684a26.911,26.911,0,1,1-34.511-41.3L337.75-7l42.059,40.384a26.911,26.911,0,0,1-34.224,41.538L352.861,96.5Z" transform="translate(2226.5 994.5) rotate(180)"/>
    <path id="Union_245" data-name="Union 245" d="M322.846,96.5,330.2,74.684a26.911,26.911,0,1,1-34.511-41.3L337.75-7l42.059,40.384a26.911,26.911,0,0,1-34.224,41.538L352.861,96.5Z" transform="translate(2419 994.5) rotate(180)"/>
    <path id="Union_247" data-name="Union 247" d="M322.846,96.5,330.2,74.684a26.911,26.911,0,1,1-34.511-41.3L337.75-7l42.059,40.384a26.911,26.911,0,0,1-34.224,41.538L352.861,96.5Z" transform="translate(2420 1111) rotate(180)"/>
  </g>
</svg>
