<svg xmlns="http://www.w3.org/2000/svg" width="404" height="550" viewBox="0 0 404 550">
  <g id="ten_diamond" transform="translate(-1783 -616)">
    <rect id="Rectangle_29" data-name="Rectangle 29" width="404" height="550" rx="8" transform="translate(1783 616)" fill="#fff"/>
    <rect id="Rectangle_30" data-name="Rectangle 30" width="296" height="454" transform="translate(1837 664)" fill="#fff"/>
    <text id="_10" data-name="10" transform="translate(1795 664)" fill="#bb371a" font-size="48" font-family="Georama" font-weight="800"><tspan x="0" y="0">10</tspan></text>
    <text id="_10-2" data-name="10" transform="translate(2175 1118) rotate(180)" fill="#bb371a" font-size="48" font-family="Georama" font-weight="800"><tspan x="0" y="0">10</tspan></text>
    <rect id="Rectangle_77" data-name="Rectangle 77" width="24" height="24" transform="translate(1810.971 678) rotate(45)" fill="#bb371a"/>
    <rect id="Rectangle_81" data-name="Rectangle 81" width="24" height="24" transform="translate(2158.97 1070.059) rotate(45)" fill="#bb371a"/>
    <rect id="Rectangle_108" data-name="Rectangle 108" width="73.172" height="73.172" transform="translate(1889.74 664.038) rotate(45)" fill="#bb371a"/>
    <rect id="Rectangle_107" data-name="Rectangle 107" width="73.172" height="73.172" transform="translate(1889.74 780.519) rotate(45)" fill="#bb371a"/>
    <rect id="Rectangle_110" data-name="Rectangle 110" width="73.172" height="73.172" transform="translate(2081.163 780.519) rotate(45)" fill="#bb371a"/>
    <rect id="Rectangle_114" data-name="Rectangle 114" width="73.172" height="73.172" transform="translate(1889.74 898.038) rotate(45)" fill="#bb371a"/>
    <rect id="Rectangle_111" data-name="Rectangle 111" width="73.172" height="73.172" transform="translate(2081.163 898.038) rotate(45)" fill="#bb371a"/>
    <rect id="Rectangle_113" data-name="Rectangle 113" width="73.172" height="73.172" transform="translate(1889.682 1014.519) rotate(45)" fill="#bb371a"/>
    <rect id="Rectangle_112" data-name="Rectangle 112" width="73.172" height="73.172" transform="translate(2081.163 1014.519) rotate(45)" fill="#bb371a"/>
    <rect id="Rectangle_109" data-name="Rectangle 109" width="73.172" height="73.172" transform="translate(2081.163 664.019) rotate(45)" fill="#bb371a"/>
    <rect id="Rectangle_115" data-name="Rectangle 115" width="73.172" height="73.172" transform="translate(1985 728.76) rotate(45)" fill="#bb371a"/>
    <rect id="Rectangle_116" data-name="Rectangle 116" width="73.172" height="73.172" transform="translate(1985 962.76) rotate(45)" fill="#bb371a"/>
  </g>
</svg>
