<svg xmlns="http://www.w3.org/2000/svg" width="404" height="550" viewBox="0 0 404 550">
  <g id="three_clover" transform="translate(-909 -26)">
    <rect id="Rectangle_15" data-name="Rectangle 15" width="404" height="550" rx="8" transform="translate(909 26)" fill="#fff"/>
    <rect id="Rectangle_16" data-name="Rectangle 16" width="296" height="454" transform="translate(963 74)" fill="#fff"/>
    <text id="_3" data-name="3" transform="translate(921 74)" font-size="48" font-family="Georama" font-weight="800"><tspan x="0" y="0">3</tspan></text>
    <path id="Union_19" data-name="Union 19" d="M297.392,25l2.274-6.745a8.32,8.32,0,1,1-5.68-14.688,8.32,8.32,0,1,1,16.026,0,8.32,8.32,0,1,1-5.591,14.762L306.672,25Z" transform="translate(636 95)"/>
    <text id="_3-2" data-name="3" transform="translate(1301 528) rotate(180)" font-size="48" font-family="Georama" font-weight="800"><tspan x="0" y="0">3</tspan></text>
    <path id="Union_16" data-name="Union 16" d="M297.392,25l2.274-6.745a8.32,8.32,0,1,1-5.68-14.688,8.32,8.32,0,1,1,16.026,0,8.32,8.32,0,1,1-5.591,14.762L306.672,25Z" transform="translate(1587 507) rotate(180)"/>
    <path id="Union_18" data-name="Union 18" d="M322.846,96.5,330.2,74.684a26.91,26.91,0,1,1-18.37-47.508,26.91,26.91,0,1,1,51.835,0,26.91,26.91,0,1,1-18.083,47.746L352.861,96.5Z" transform="translate(773.25 81)"/>
    <path id="Union_17" data-name="Union 17" d="M322.846,96.5,330.2,74.684a26.91,26.91,0,1,1-18.37-47.508,26.91,26.91,0,1,1,51.835,0,26.91,26.91,0,1,1-18.083,47.746L352.861,96.5Z" transform="translate(1448.75 521) rotate(180)"/>
    <path id="Union_20" data-name="Union 20" d="M322.846,96.5,330.2,74.684a26.91,26.91,0,1,1-18.37-47.508,26.91,26.91,0,1,1,51.835,0,26.91,26.91,0,1,1-18.083,47.746L352.861,96.5Z" transform="translate(773.25 256.25)"/>
    <path id="Union_33" data-name="Union 33" d="M322.846,96.5,330.2,74.684a26.91,26.91,0,1,1-18.37-47.508,26.91,26.91,0,1,1,51.835,0,26.91,26.91,0,1,1-18.083,47.746L352.861,96.5Z" transform="translate(773.25 256.25)"/>
  </g>
</svg>
