<svg xmlns="http://www.w3.org/2000/svg" width="404" height="550" viewBox="0 0 404 550">
  <g id="two_spade" transform="translate(-472 -26)">
    <rect id="Rectangle_13" data-name="Rectangle 13" width="404" height="550" rx="8" transform="translate(472 26)" fill="#fff"/>
    <rect id="Rectangle_14" data-name="Rectangle 14" width="296" height="454" transform="translate(526 74)" fill="#fff"/>
    <text id="_2" data-name="2" transform="translate(484 74)" font-size="48" font-family="Georama" font-weight="800"><tspan x="0" y="0">2</tspan></text>
    <text id="_2-2" data-name="2" transform="translate(864 528) rotate(180)" font-size="48" font-family="Georama" font-weight="800"><tspan x="0" y="0">2</tspan></text>
    <path id="Union_109" data-name="Union 109" d="M297.392,25l2.274-6.745A8.32,8.32,0,1,1,289,5.486L302-7,315,5.486a8.32,8.32,0,0,1-10.581,12.843L306.672,25Z" transform="translate(198 95)"/>
    <path id="Union_119" data-name="Union 119" d="M297.392,25l2.274-6.745A8.32,8.32,0,1,1,289,5.486L302-7,315,5.486a8.32,8.32,0,0,1-10.581,12.843L306.672,25Z" transform="translate(1151 507) rotate(180)"/>
    <path id="Union_127" data-name="Union 127" d="M322.846,96.5,330.2,74.684a26.911,26.911,0,1,1-34.511-41.3L337.75-7l42.059,40.384a26.911,26.911,0,0,1-34.224,41.538L352.861,96.5Z" transform="translate(336.25 81)"/>
    <path id="Union_129" data-name="Union 129" d="M322.846,96.5,330.2,74.684a26.911,26.911,0,1,1-34.511-41.3L337.75-7l42.059,40.384a26.911,26.911,0,0,1-34.224,41.538L352.861,96.5Z" transform="translate(1011.75 521) rotate(180)"/>
  </g>
</svg>
